<?xml version="1.0" encoding="UTF-8" standalone="no"?>
<svg
   xmlns:dc="http://purl.org/dc/elements/1.1/"
   xmlns:cc="http://creativecommons.org/ns#"
   xmlns:rdf="http://www.w3.org/1999/02/22-rdf-syntax-ns#"
   xmlns:svg="http://www.w3.org/2000/svg"
   xmlns="http://www.w3.org/2000/svg"
   xmlns:sodipodi="http://sodipodi.sourceforge.net/DTD/sodipodi-0.dtd"
   xmlns:inkscape="http://www.inkscape.org/namespaces/inkscape"
   width="149"
   height="40"
   viewBox="0 0 149 40"
   fill="none"
   version="1.1"
   id="svg6"
   sodipodi:docname="imperva-logo.svg"
   inkscape:version="0.92.5 (2060ec1f9f, 2020-04-08)">
  <metadata
     id="metadata12">
    <rdf:RDF>
      <cc:Work
         rdf:about="">
        <dc:format>image/svg+xml</dc:format>
        <dc:type
           rdf:resource="http://purl.org/dc/dcmitype/StillImage" />
      </cc:Work>
    </rdf:RDF>
  </metadata>
  <defs
     id="defs10" />
  <sodipodi:namedview
     pagecolor="#ffffff"
     bordercolor="#666666"
     borderopacity="1"
     objecttolerance="10"
     gridtolerance="10"
     guidetolerance="10"
     inkscape:pageopacity="0"
     inkscape:pageshadow="2"
     inkscape:window-width="640"
     inkscape:window-height="480"
     id="namedview8"
     showgrid="false"
     inkscape:zoom="2.7181208"
     inkscape:cx="74.5"
     inkscape:cy="20"
     inkscape:window-x="0"
     inkscape:window-y="27"
     inkscape:window-maximized="0"
     inkscape:current-layer="svg6" />
  <path
     d="M6.07518 0H3.03759H0V6.11407H6.07518V0ZM148.157 33.8857H145.12H142.082V39.9998H148.157V33.8857Z"
     fill="white"
     id="path2"
     style="fill:#000000" />
  <path
     d="M6.07518 31.0007H0V8.99862H3.03759H6.07518V31.0007ZM34.098 8.52499C38.5902 8.52499 41.2856 11.6681 41.2856 16.6627V31.0007H35.2104V17.9114C35.2104 15.5433 34.1836 13.9932 32.0872 13.9932C30.5043 13.9932 29.0924 14.9835 28.7074 16.835V31.0007H22.5894V17.9114C22.5894 15.5433 21.6054 13.9932 19.509 13.9932C17.9261 13.9932 16.4714 14.9835 16.0864 16.835V31.0007H10.054V8.99862H16.1292V10.807C17.1987 9.42918 19.2096 8.48193 21.6482 8.48193C24.2579 8.48193 26.3115 9.64447 27.5094 11.2806C28.9213 9.73058 31.0176 8.52499 34.098 8.52499ZM51.254 39.9995H45.1788V8.99862H51.254V10.807C52.238 9.64447 54.3771 8.48193 56.7302 8.48193C63.1049 8.48193 66.6986 13.7779 66.6986 19.9781C66.6986 26.1783 63.0621 31.4312 56.7302 31.4312C54.3771 31.4312 52.238 30.3117 51.254 29.1062V39.9995ZM51.254 23.6379C51.9813 25.1449 53.607 26.1783 55.3611 26.1783C58.6554 26.1783 60.5807 23.5088 60.5807 20.0212C60.5807 16.4905 58.6127 13.821 55.3611 13.821C53.5643 13.821 51.9813 14.8974 51.254 16.3613V23.6379ZM74.8274 21.399C75.298 24.9727 77.9078 26.4797 81.1165 26.4797C83.5123 26.4797 85.2237 25.9199 87.3628 24.5421V29.5798C85.5659 30.9145 83.1273 31.5173 80.1753 31.5173C73.5439 31.5173 68.9661 27.1686 68.9661 20.1934C68.9661 13.3043 73.2872 8.52499 79.234 8.52499C85.6087 8.52499 88.8602 12.9598 88.8602 19.4614V21.442H74.8274V21.399ZM75.0413 17.4378H83.2984C83.1701 15.0696 81.8438 13.3904 79.448 13.3904C77.4372 13.3904 75.7258 14.6821 75.0413 17.4378ZM105.417 15.0266C104.604 14.5529 103.492 14.2946 102.38 14.2946C100.326 14.2946 98.6575 15.371 98.2297 17.3947V31.0007H92.1545V8.99862H98.2297V11.1515C99.1709 9.55835 100.968 8.48193 103.107 8.48193C104.134 8.48193 105.075 8.69722 105.417 8.86944V15.0266ZM114.872 31.0007L106.615 8.99862H112.947L117.995 23.5949L122.915 8.99862H129.033L120.734 31.0007H114.872ZM142.125 17.2655C142.125 15.1557 140.328 13.821 137.248 13.821C135.066 13.821 133.012 14.4668 131.301 15.5863V10.3334C132.884 9.34307 135.708 8.52499 138.574 8.52499C144.606 8.52499 148.2 11.6251 148.2 17.0072V31.0007H142.125V29.8381C141.398 30.5701 139.259 31.4312 136.863 31.4312C132.456 31.4312 128.777 28.8909 128.777 24.2838C128.777 20.1073 132.456 17.2655 137.248 17.2655C139.173 17.2655 141.269 17.9114 142.125 18.5572V17.2655ZM142.125 23.4227C141.569 22.2601 139.986 21.4851 138.275 21.4851C136.349 21.4851 134.424 22.3032 134.424 24.1977C134.424 26.1352 136.392 26.9103 138.275 26.9103C139.986 26.9103 141.612 26.1783 142.125 24.9727V23.4227Z"
     fill="white"
     id="path4"
     style="fill:#000000" />
</svg>
